<?xml version="1.0" encoding="UTF-8" standalone="no"?>
<svg
   version="1.1"
   id="svg2"
   xml:space="preserve"
   width="969.1322"
   height="477.62683"
   viewBox="0 0 969.1322 477.62684"
   sodipodi:docname="front.svg"
   inkscape:version="1.2.2 (1:1.2.2+202212051551+b0a8486541)"
   xmlns:inkscape="http://www.inkscape.org/namespaces/inkscape"
   xmlns:sodipodi="http://sodipodi.sourceforge.net/DTD/sodipodi-0.dtd"
   xmlns="http://www.w3.org/2000/svg"
   xmlns:svg="http://www.w3.org/2000/svg"
   xmlns:rdf="http://www.w3.org/1999/02/22-rdf-syntax-ns#"
   xmlns:cc="http://creativecommons.org/ns#"
   xmlns:dc="http://purl.org/dc/elements/1.1/"><metadata
     id="metadata8"><rdf:RDF><cc:Work
         rdf:about=""><dc:format>image/svg+xml</dc:format><dc:type
           rdf:resource="http://purl.org/dc/dcmitype/StillImage" /></cc:Work></rdf:RDF></metadata><defs
     id="defs6"><inkscape:path-effect
   effect="bspline"
   id="path-effect1623"
   is_visible="true"
   lpeversion="1"
   weight="33.333333"
   steps="2"
   helper_size="0"
   apply_no_weight="true"
   apply_with_weight="true"
   only_selected="false" /><inkscape:path-effect
   effect="bspline"
   id="path-effect17271"
   is_visible="true"
   lpeversion="1"
   weight="33.333333"
   steps="2"
   helper_size="0"
   apply_no_weight="true"
   apply_with_weight="true"
   only_selected="false" /><clipPath
   clipPathUnits="userSpaceOnUse"
   id="clipPath18"><path
     d="M 0,0.028 H 719.971 V 539.999 H 0 Z"
     id="path16"
     inkscape:connector-curvature="0"
     style="clip-rule:evenodd" /></clipPath><clipPath
   clipPathUnits="userSpaceOnUse"
   id="clipPath30"><path
     d="M 0,0.056 H 719.971 V 539.999 H 0 Z"
     id="path28"
     inkscape:connector-curvature="0"
     style="clip-rule:evenodd" /></clipPath><clipPath
   clipPathUnits="userSpaceOnUse"
   id="clipPath62"><path
     d="M 0,0.028 H 719.971 V 539.999 H 0 Z"
     id="path60"
     inkscape:connector-curvature="0"
     style="clip-rule:evenodd" /></clipPath><clipPath
   id="clipPath936"
   clipPathUnits="userSpaceOnUse"><path
     style="clip-rule:evenodd"
     inkscape:connector-curvature="0"
     id="path934"
     d="M 0,0.028 H 719.971 V 539.999 H 0 Z" /></clipPath><clipPath
   id="clipPath948"
   clipPathUnits="userSpaceOnUse"><path
     style="clip-rule:evenodd"
     inkscape:connector-curvature="0"
     id="path946"
     d="M 0,0.056 H 719.971 V 539.999 H 0 Z" /></clipPath><clipPath
   id="clipPath980"
   clipPathUnits="userSpaceOnUse"><path
     style="clip-rule:evenodd"
     inkscape:connector-curvature="0"
     id="path978"
     d="M 0,0.028 H 719.971 V 539.999 H 0 Z" /></clipPath><clipPath
   clipPathUnits="userSpaceOnUse"
   id="clipPath1097"><rect
     style="fill:#e9e9e9;fill-opacity:1;stroke:none;stroke-width:2.04258;stroke-miterlimit:4;stroke-dasharray:none;stroke-opacity:1"
     id="rect1099"
     width="298.51294"
     height="40.448906"
     x="40.381569"
     y="-403.68008" /></clipPath><clipPath
   id="clip1"><path
     id="path1101"
     d="M 0.910156,0 H 338.41797 V 49.222656 H 0.910156 Z m 0,0"
     inkscape:connector-curvature="0" /></clipPath><clipPath
   clipPathUnits="userSpaceOnUse"
   id="clipPath1317"><rect
     style="fill:#e9e9e9;fill-opacity:1;stroke:none;stroke-width:2.84882;stroke-miterlimit:4;stroke-dasharray:none;stroke-opacity:1"
     id="rect1319"
     width="234.53389"
     height="38.326275"
     x="24.365492"
     y="5.7361679" /></clipPath><clipPath
   id="clip1-7"><path
     id="path1101-5"
     d="M 0.910156,0 H 338.41797 V 49.222656 H 0.910156 Z m 0,0"
     inkscape:connector-curvature="0" /></clipPath><clipPath
   clipPathUnits="userSpaceOnUse"
   id="clipPath3018"><path
     d="M 0,56.958 H 147.026 V 0 H 0 Z"
     id="path3020" /></clipPath>




<clipPath
   clipPathUnits="userSpaceOnUse"
   id="clipPath9096"><path
     d="M -19.569529,216.99362 H 146.30788 V 49.537056 H -19.569529 Z"
     id="path9094" /></clipPath><radialGradient
   fx="0"
   fy="0"
   cx="0"
   cy="0"
   r="1"
   gradientUnits="userSpaceOnUse"
   gradientTransform="matrix(20.87648,0,0,-20.421158,48.704285,94.012909)"
   spreadMethod="pad"
   id="radialGradient9102"><stop
     style="stop-opacity:1;stop-color:#ffffff"
     offset="0"
     id="stop9098" /><stop
     style="stop-opacity:1;stop-color:#52ace4"
     offset="1"
     id="stop9100" /></radialGradient><clipPath
   clipPathUnits="userSpaceOnUse"
   id="clipPath9122"><path
     d="M -19.569985,217.00041 148.40605,218.95555 146.30883,49.541582 -21.66721,47.586438 Z"
     id="path9120" /></clipPath><radialGradient
   fx="0"
   fy="0"
   cx="0"
   cy="0"
   r="1"
   gradientUnits="userSpaceOnUse"
   gradientTransform="matrix(17.256134,0.2008514,-0.2046051,-16.528015,48.70462,94.017761)"
   spreadMethod="pad"
   id="radialGradient9128"><stop
     style="stop-opacity:1;stop-color:#ffffff"
     offset="0"
     id="stop9124" /><stop
     style="stop-opacity:1;stop-color:#5dade4"
     offset="1"
     id="stop9126" /></radialGradient><clipPath
   clipPathUnits="userSpaceOnUse"
   id="clipPath9276"><path
     d="M 0,141.286 H 155.556 V 0 H 0 Z"
     id="path9274" /></clipPath><clipPath
   clipPathUnits="userSpaceOnUse"
   id="clipPath15598"><g
     id="g15602"
     transform="matrix(1.1915785,0,0,-1.1915785,-982.61116,282.40052)"><path
       d="M 788.08428,258.48648 H 911.21507 V 181.14286 H 788.08428 Z"
       id="path15600"
       style="stroke-width:0.839223" /></g></clipPath><clipPath
   clipPathUnits="userSpaceOnUse"
   id="clipPath15604"><g
     id="g15608"
     transform="matrix(1.1915785,0,0,-1.1915785,-968.84796,268.62903)"><path
       d="M 788.08428,258.48648 H 911.21507 V 181.14286 H 788.08428 Z"
       id="path15606"
       style="stroke-width:0.839223" /></g></clipPath><clipPath
   clipPathUnits="userSpaceOnUse"
   id="clipPath15610"><g
     id="g15614"
     transform="matrix(1.1915785,0,0,-1.1915785,-970.17707,254.17492)"><path
       d="M 788.08428,258.48648 H 911.21507 V 181.14286 H 788.08428 Z"
       id="path15612"
       style="stroke-width:0.839223" /></g></clipPath><clipPath
   clipPathUnits="userSpaceOnUse"
   id="clipPath15616"><g
     id="g15620"
     transform="matrix(1.1915785,0,0,-1.1915785,-992.64047,243.99183)"><path
       d="M 788.08428,258.48648 H 911.21507 V 181.14286 H 788.08428 Z"
       id="path15618"
       style="stroke-width:0.839223" /></g></clipPath><clipPath
   clipPathUnits="userSpaceOnUse"
   id="clipPath15622"><g
     id="g15626"
     transform="matrix(1.1915785,0,0,-1.1915785,-987.84987,242.99133)"><path
       d="M 788.08428,258.48648 H 911.21507 V 181.14286 H 788.08428 Z"
       id="path15624"
       style="stroke-width:0.839223" /></g></clipPath><clipPath
   clipPathUnits="userSpaceOnUse"
   id="clipPath15628"><g
     id="g15632"
     transform="matrix(1.1915785,0,0,-1.1915785,-1007.8602,257.29113)"><path
       d="M 788.08428,258.48648 H 911.21507 V 181.14286 H 788.08428 Z"
       id="path15630"
       style="stroke-width:0.839223" /></g></clipPath><clipPath
   clipPathUnits="userSpaceOnUse"
   id="clipPath15634"><g
     id="g15638"
     transform="matrix(1.1915785,0,0,-1.1915785,-1006.3597,253.66713)"><path
       d="M 788.08428,258.48648 H 911.21507 V 181.14286 H 788.08428 Z"
       id="path15636"
       style="stroke-width:0.839223" /></g></clipPath><clipPath
   clipPathUnits="userSpaceOnUse"
   id="clipPath15640"><g
     id="g15644"
     transform="matrix(1.1915785,0,0,-1.1915785,-1003.8441,277.32822)"><path
       d="M 788.08428,258.48648 H 911.21507 V 181.14286 H 788.08428 Z"
       id="path15642"
       style="stroke-width:0.839223" /></g></clipPath><clipPath
   clipPathUnits="userSpaceOnUse"
   id="clipPath15646"><g
     id="g15650"
     transform="matrix(1.1915785,0,0,-1.1915785,-1006.2621,273.55672)"><path
       d="M 788.08428,258.48648 H 911.21507 V 181.14286 H 788.08428 Z"
       id="path15648"
       style="stroke-width:0.839223" /></g></clipPath><clipPath
   clipPathUnits="userSpaceOnUse"
   id="clipPath15652"><g
     id="g15656"
     transform="matrix(1.1915785,0,0,-1.1915785,-979.72586,296.48742)"><path
       d="M 788.08428,258.48648 H 911.21507 V 181.14286 H 788.08428 Z"
       id="path15654"
       style="stroke-width:0.839223" /></g></clipPath><clipPath
   clipPathUnits="userSpaceOnUse"
   id="clipPath15658"><g
     id="g15662"
     transform="matrix(1.1915785,0,0,-1.1915785,-979.72586,296.48742)"><path
       d="M 788.08428,258.48648 H 911.21507 V 181.14286 H 788.08428 Z"
       id="path15660"
       style="stroke-width:0.839223" /></g></clipPath><clipPath
   clipPathUnits="userSpaceOnUse"
   id="clipPath15664"><g
     id="g15668"
     transform="matrix(1.1915785,0,0,-1.1915785,-985.23756,283.84683)"><path
       d="M 788.08428,258.48648 H 911.21507 V 181.14286 H 788.08428 Z"
       id="path15666"
       style="stroke-width:0.839223" /></g></clipPath><clipPath
   clipPathUnits="userSpaceOnUse"
   id="clipPath15670"><g
     id="g15674"
     transform="matrix(1.1915785,0,0,-1.1915785,-955.31576,273.62413)"><path
       d="M 788.08428,258.48648 H 911.21507 V 181.14286 H 788.08428 Z"
       id="path15672"
       style="stroke-width:0.839223" /></g></clipPath><clipPath
   clipPathUnits="userSpaceOnUse"
   id="clipPath15676"><g
     id="g15680"
     transform="matrix(1.1915785,0,0,-1.1915785,-955.31576,273.62413)"><path
       d="M 788.08428,258.48648 H 911.21507 V 181.14286 H 788.08428 Z"
       id="path15678"
       style="stroke-width:0.839223" /></g></clipPath><clipPath
   clipPathUnits="userSpaceOnUse"
   id="clipPath15682"><g
     id="g15686"
     transform="matrix(1.1915785,0,0,-1.1915785,-968.30597,271.41813)"><path
       d="M 788.08428,258.48648 H 911.21507 V 181.14286 H 788.08428 Z"
       id="path15684"
       style="stroke-width:0.839223" /></g></clipPath><clipPath
   clipPathUnits="userSpaceOnUse"
   id="clipPath15688"><g
     id="g15692"
     transform="matrix(1.1915785,0,0,-1.1915785,-964.09896,239.14363)"><path
       d="M 788.08428,258.48648 H 911.21507 V 181.14286 H 788.08428 Z"
       id="path15690"
       style="stroke-width:0.839223" /></g></clipPath><clipPath
   clipPathUnits="userSpaceOnUse"
   id="clipPath15694"><g
     id="g15698"
     transform="matrix(1.1915785,0,0,-1.1915785,-964.09896,239.14363)"><path
       d="M 788.08428,258.48648 H 911.21507 V 181.14286 H 788.08428 Z"
       id="path15696"
       style="stroke-width:0.839223" /></g></clipPath><clipPath
   clipPathUnits="userSpaceOnUse"
   id="clipPath15700"><g
     id="g15704"
     transform="matrix(1.1915785,0,0,-1.1915785,-970.63506,251.30583)"><path
       d="M 788.08428,258.48648 H 911.21507 V 181.14286 H 788.08428 Z"
       id="path15702"
       style="stroke-width:0.839223" /></g></clipPath><clipPath
   clipPathUnits="userSpaceOnUse"
   id="clipPath15706"><g
     id="g15710"
     transform="matrix(1.1915785,0,0,-1.1915785,-1012.4427,287.82723)"><path
       d="M 788.08428,258.48648 H 911.21507 V 181.14286 H 788.08428 Z"
       id="path15708"
       style="stroke-width:0.839223" /></g></clipPath><clipPath
   clipPathUnits="userSpaceOnUse"
   id="clipPath15712"><g
     id="g15716"
     transform="matrix(1.1915785,0,0,-1.1915785,-1005.4994,275.88392)"><path
       d="M 788.08428,258.48648 H 911.21507 V 181.14286 H 788.08428 Z"
       id="path15714"
       style="stroke-width:0.839223" /></g></clipPath><clipPath
   clipPathUnits="userSpaceOnUse"
   id="clipPath15718"><g
     id="g15722"
     transform="matrix(1.1915785,0,0,-1.1915785,-1008.0072,255.00302)"><path
       d="M 788.08428,258.48648 H 911.21507 V 181.14286 H 788.08428 Z"
       id="path15720"
       style="stroke-width:0.839223" /></g></clipPath><clipPath
   clipPathUnits="userSpaceOnUse"
   id="clipPath15724"><g
     id="g15728"
     transform="matrix(1.1915785,0,0,-1.1915785,-994.28256,229.04013)"><path
       d="M 788.08428,258.48648 H 911.21507 V 181.14286 H 788.08428 Z"
       id="path15726"
       style="stroke-width:0.839223" /></g></clipPath><clipPath
   clipPathUnits="userSpaceOnUse"
   id="clipPath15730"><g
     id="g15734"
     transform="matrix(1.1915785,0,0,-1.1915785,-994.28256,229.04013)"><path
       d="M 788.08428,258.48648 H 911.21507 V 181.14286 H 788.08428 Z"
       id="path15732"
       style="stroke-width:0.839223" /></g></clipPath><clipPath
   clipPathUnits="userSpaceOnUse"
   id="clipPath15736"><g
     id="g15740"
     transform="matrix(1.1915785,0,0,-1.1915785,-990.35286,242.23153)"><path
       d="M 788.08428,258.48648 H 911.21507 V 181.14286 H 788.08428 Z"
       id="path15738"
       style="stroke-width:0.839223" /></g></clipPath><clipPath
   clipPathUnits="userSpaceOnUse"
   id="clipPath15755"><g
     id="g15761"><g
       id="g15759"><path
         d="M 788.08428,258.48648 H 911.21507 V 181.14286 H 788.08428 Z"
         id="path15757"
         style="stroke-width:0.839223" /></g></g></clipPath><inkscape:path-effect
   effect="bspline"
   id="path-effect1623-3"
   is_visible="true"
   lpeversion="1"
   weight="33.333333"
   steps="2"
   helper_size="0"
   apply_no_weight="true"
   apply_with_weight="true"
   only_selected="false" /></defs><sodipodi:namedview
     pagecolor="#ffffff"
     bordercolor="#666666"
     borderopacity="1"
     objecttolerance="10"
     gridtolerance="10"
     guidetolerance="10"
     inkscape:pageopacity="0"
     inkscape:pageshadow="2"
     inkscape:window-width="1874"
     inkscape:window-height="1043"
     id="namedview4"
     showgrid="false"
     showguides="true"
     inkscape:guide-bbox="true"
     inkscape:zoom="0.49873454"
     inkscape:cx="560.41837"
     inkscape:cy="-20.050747"
     inkscape:window-x="0"
     inkscape:window-y="0"
     inkscape:window-maximized="1"
     inkscape:current-layer="svg2"
     inkscape:document-rotation="0"
     inkscape:pagecheckerboard="0"
     inkscape:showpageshadow="2"
     inkscape:deskcolor="#d1d1d1" /><g
     id="g10"
     inkscape:groupmode="layer"
     inkscape:label="Formatvorlage_englisch"
     transform="matrix(1.3333333,0,0,-1.3333333,-21.254233,561.29387)">



<rect
   style="opacity:1;fill:#d9e6f0;fill-opacity:1;stroke:none;stroke-width:3.0324;stroke-miterlimit:4;stroke-dasharray:none;stroke-opacity:1"
   id="rect1044"
   width="664.36157"
   height="75.092216"
   x="76.719528"
   y="-187.46365"
   transform="scale(1,-1)" /><rect
   style="fill:#073669;fill-opacity:1;stroke:none;stroke-width:3.31055;stroke-miterlimit:4;stroke-dasharray:none;stroke-opacity:1"
   id="rect918"
   width="699.48004"
   height="170.09248"
   x="15.940675"
   y="-363.3783"
   transform="scale(1,-1)" /><g
   id="g40349"
   transform="translate(0,-1.0341799)"
   style="fill:#073669;fill-opacity:1"><g
     transform="translate(17.902112,-70.978306)"
     id="g969"
     style="fill:#073669;fill-opacity:1"><text
   id="text967"
   style="font-variant:normal;font-weight:normal;font-size:20px;font-family:Carlito;-inkscape-font-specification:Carlito;writing-mode:lr-tb;fill:#073669;fill-opacity:1;fill-rule:nonzero;stroke:none"
   transform="matrix(1,0,0,-1,78.491,228.898)"
   y="0"><tspan
     id="tspan965"
     sodipodi:role="line"
     y="0"
     x="0"
     style="font-size:20px;fill:#073669;fill-opacity:1">Yannik Schälte</tspan></text>




</g><g
     transform="translate(17.902112,-73.978306)"
     id="g975"
     style="fill:#073669;fill-opacity:1"><text
   id="text973"
   style="font-variant:normal;font-weight:normal;font-size:18px;font-family:Carlito;-inkscape-font-specification:Carlito;writing-mode:lr-tb;fill:#073669;fill-opacity:1;fill-rule:nonzero;stroke:none"
   transform="matrix(1,0,0,-1,78.491,207.298)"
   y="0"><tspan
     id="tspan971"
     sodipodi:role="line"
     y="0"
     x="0"
     style="font-size:18px;fill:#073669;fill-opacity:1">EMUNE Consortium Meeting, Heidelberg 2023-01-16</tspan></text>




</g></g><text
   id="text979"
   style="font-variant:normal;font-weight:normal;font-size:32.2594px;font-family:Carlito;-inkscape-font-specification:Carlito;writing-mode:lr-tb;fill:#ffffff;fill-opacity:1;fill-rule:nonzero;stroke:none;stroke-width:0.729727"
   transform="scale(1,-1)"
   y="-307.42484"
   x="95.069969"><tspan
     sodipodi:role="line"
     y="-307.42484"
     x="95.069969"
     style="font-size:28px;stroke-width:0.729727"
     id="tspan419"><tspan
       id="tspan1183"
       style="font-size:32.2594px;stroke-width:0.729727"><tspan
   style="font-size:40px"
   id="tspan479">Missing data</tspan> <tspan
   id="tspan11753"
   style="font-size:20px">in</tspan><tspan
   style="font-size:22px"
   id="tspan483"> </tspan></tspan><tspan
       id="tspan1000"
       style="font-size:36px;stroke-width:0.729727">amortized</tspan></tspan><tspan
     sodipodi:role="line"
     y="-260.9639"
     x="95.069969"
     style="font-size:36px;stroke-width:0.729727"
     id="tspan417"><tspan
       id="tspan1189"
       style="font-size:28px;stroke-width:0.729727"><tspan
   style="font-size:24px"
   id="tspan11747">simulation-based</tspan> </tspan><tspan
       style="font-size:30px"
       id="tspan11751">neural posterior</tspan></tspan><tspan
     sodipodi:role="line"
     y="-219.27345"
     x="95.069969"
     style="font-size:30px;stroke-width:0.729727"
     id="tspan1191">estimation</tspan></text><g
   id="g3642"
   transform="matrix(0.9999925,0,0,0.9999925,-15.293528,50.911566)"><g
     id="g3022"
     transform="matrix(0.72316989,0,0,0.72316989,423.66483,358.69092)"
     style="fill:#07529a;fill-opacity:1"><path
       d="M 0,0 C 4.722,5.559 7.378,10.12 9.502,15.723 H -26.884 V -15.712 C -19.686,-14.741 -9.592,-11.294 0,0"
       style="fill:#07529a;fill-opacity:1;fill-rule:nonzero;stroke:none"
       id="path3024" /></g><path
     d="m 404.22675,328.87108 h 41.19393 v 11.5794 h -41.19393 z"
     style="fill:#eab90c;fill-opacity:1;fill-rule:nonzero;stroke:none;stroke-width:0.72317"
     id="path3026" /><g
     id="g3028"
     transform="matrix(0.72316989,0,0,0.72316989,445.41713,370.06139)"
     style="fill:#909085;fill-opacity:1"><path
       d="m 0,0 h -18.197 c -2.179,-5.927 -5.489,-11.923 -10.518,-17.844 -9.903,-11.658 -20.868,-15.169 -28.248,-16.142 v -4.423 H 0 Z"
       style="fill:#909085;fill-opacity:1;fill-rule:nonzero;stroke:none"
       id="path3030" /></g><g
     id="g3032"
     transform="matrix(0.72316989,0,0,0.72316989,408.95643,331.96755)"><path
       d="m 0,0 c 1.386,0 1.818,0.283 1.818,1.52 0,1.371 -0.462,1.728 -1.878,1.744 H -1.952 V 0.015 Z M -1.952,7.51 V 4.619 h 1.863 c 1.251,0 1.669,0.298 1.669,1.476 0,1.147 -0.447,1.415 -1.818,1.415 z M 1.609,3.919 c 1.55,-0.134 2.072,-1.103 2.072,-2.742 0,-2.116 -0.969,-2.682 -3.368,-2.682 -1.877,0 -2.861,0.015 -4.098,0.119 V 8.896 c 1.102,0.104 1.997,0.12 3.636,0.12 2.593,0 3.517,-0.567 3.517,-2.683 0,-1.476 -0.507,-2.235 -1.759,-2.354 z"
       style="fill:#ffffff;fill-opacity:1;fill-rule:nonzero;stroke:none"
       id="path3034" /></g><g
     id="g3036"
     transform="matrix(0.72316989,0,0,0.72316989,414.14922,334.68298)"><path
       d="m 0,0 c 0,-2.861 0.536,-3.74 2.265,-3.74 1.743,0 2.28,0.879 2.28,3.74 0,2.861 -0.537,3.74 -2.28,3.74 C 0.536,3.74 0,2.861 0,0 m 6.512,0 c 0,-4.083 -1.103,-5.335 -4.247,-5.335 -3.129,0 -4.232,1.252 -4.232,5.335 0,4.083 1.103,5.335 4.232,5.335 3.144,0 4.247,-1.252 4.247,-5.335"
       style="fill:#ffffff;fill-opacity:1;fill-rule:nonzero;stroke:none"
       id="path3038" /></g><g
     id="g3040"
     transform="matrix(0.72316989,0,0,0.72316989,426.3026,331.46119)"><path
       d="m 0,0 c 0,-0.447 -0.238,-0.686 -0.686,-0.686 h -1.475 c -0.402,0 -0.61,0.179 -0.775,0.566 l -2.89,6.304 c -0.195,0.417 -0.507,1.057 -0.611,1.535 h -0.179 c 0.074,-0.522 0.09,-1.043 0.09,-1.55 v -6.855 h -1.833 v 9.597 c 0,0.446 0.253,0.685 0.7,0.685 h 1.445 c 0.402,0 0.596,-0.179 0.776,-0.566 l 2.8,-6.125 c 0.195,-0.447 0.492,-1.072 0.716,-1.624 h 0.179 C -1.788,1.848 -1.817,2.398 -1.817,2.95 V 9.596 H 0 Z"
       style="fill:#ffffff;fill-opacity:1;fill-rule:nonzero;stroke:none"
       id="path3042" /></g><g
     id="g3044"
     transform="matrix(0.72316989,0,0,0.72316989,434.00602,331.46119)"><path
       d="m 0,0 c 0,-0.447 -0.239,-0.686 -0.686,-0.686 h -1.475 c -0.402,0 -0.611,0.179 -0.775,0.566 l -2.891,6.304 c -0.193,0.417 -0.506,1.057 -0.61,1.535 h -0.179 c 0.074,-0.522 0.089,-1.043 0.089,-1.55 V -0.686 H -8.36 v 9.597 c 0,0.446 0.254,0.685 0.7,0.685 h 1.446 c 0.402,0 0.596,-0.179 0.775,-0.566 l 2.801,-6.125 c 0.194,-0.447 0.492,-1.072 0.715,-1.624 h 0.179 C -1.789,1.848 -1.818,2.398 -1.818,2.95 V 9.596 H 0 Z"
       style="fill:#ffffff;fill-opacity:1;fill-rule:nonzero;stroke:none"
       id="path3046" /></g><g
     id="g3048"
     transform="matrix(0.72316989,0,0,0.72316989,344.57275,333.83333)"
     style="fill:#909085;fill-opacity:1"><path
       d="m 0,0 c 0,-3.011 -0.999,-4.159 -3.727,-4.159 -2.817,0 -3.846,1.148 -3.846,4.159 v 6.321 h 1.491 V 0 c 0,-2.116 0.582,-2.832 2.295,-2.832 1.685,0 2.296,0.716 2.296,2.832 V 6.321 H 0 Z"
       style="fill:#909085;fill-opacity:1;fill-rule:nonzero;stroke:none"
       id="path3050" /></g><g
     id="g3052"
     transform="matrix(0.72316989,0,0,0.72316989,352.15541,331.38634)"
     style="fill:#909085;fill-opacity:1"><path
       d="m 0,0 c 0,-0.388 -0.194,-0.581 -0.552,-0.581 h -1.416 c -0.328,0 -0.507,0.148 -0.641,0.461 l -3.205,7.008 c -0.179,0.386 -0.492,0.998 -0.611,1.43 H -6.634 C -6.574,7.842 -6.56,7.35 -6.56,6.888 v -7.469 h -1.49 v 9.704 c 0,0.388 0.208,0.582 0.567,0.582 h 1.371 c 0.328,0 0.506,-0.149 0.655,-0.462 L -2.34,2.415 c 0.193,-0.418 0.491,-1.014 0.715,-1.536 h 0.224 c -0.045,0.537 -0.075,1.058 -0.075,1.596 v 7.23 H 0 Z"
       style="fill:#909085;fill-opacity:1;fill-rule:nonzero;stroke:none"
       id="path3054" /></g><path
     d="m 353.97078,338.40463 h 1.07825 v -7.43853 h -1.07825 z"
     style="fill:#909085;fill-opacity:1;fill-rule:nonzero;stroke:none;stroke-width:0.72317"
     id="path3056" /><g
     id="g3058"
     transform="matrix(0.72316989,0,0,0.72316989,360.19257,331.26767)"
     style="fill:#909085;fill-opacity:1"><path
       d="m 0,0 c -0.074,-0.238 -0.298,-0.417 -0.566,-0.417 h -1.461 c -0.269,0 -0.492,0.179 -0.567,0.417 L -5.635,9.869 H -4.1 L -1.774,1.863 C -1.669,1.491 -1.58,1.103 -1.49,0.73 h 0.402 c 0.075,0.373 0.179,0.761 0.283,1.133 l 2.311,8.006 h 1.536 z"
       style="fill:#909085;fill-opacity:1;fill-rule:nonzero;stroke:none"
       id="path3060" /></g><g
     id="g3062"
     transform="matrix(0.72316989,0,0,0.72316989,368.0885,331.03039)"
     style="fill:#909085;fill-opacity:1"><path
       d="m 0,0 c -1.357,-0.119 -2.937,-0.119 -4.413,-0.119 -1.282,0 -2.058,0.716 -2.072,1.848 v 6.649 c 0.014,1.133 0.804,1.849 2.072,1.849 1.476,0 3.056,0 4.413,-0.12 L -0.075,8.944 H -4.16 c -0.596,0 -0.819,-0.253 -0.819,-0.953 V 5.934 h 4.337 V 4.726 H -4.979 V 2.103 c 0,-0.702 0.223,-0.955 0.819,-0.955 h 4.085 z"
       style="fill:#909085;fill-opacity:1;fill-rule:nonzero;stroke:none"
       id="path3064" /></g><g
     id="g3066"
     transform="matrix(0.72316989,0,0,0.72316989,372.10231,334.95482)"
     style="fill:#909085;fill-opacity:1"><path
       d="M 0,0 C 1.446,0.015 1.923,0.417 1.923,1.833 1.923,3.25 1.446,3.622 0,3.622 c -0.806,0 -1.521,0 -2.087,-0.015 V 0 Z M 2.206,-5.516 1.327,-2.311 C 1.088,-1.565 0.686,-1.282 0.03,-1.282 l -2.117,0.014 V -5.516 H -3.563 V 4.771 c 1.133,0.119 1.908,0.133 3.593,0.133 2.415,0 3.398,-0.671 3.398,-2.981 0,-1.625 -0.522,-2.445 -1.892,-2.624 v -0.074 c 0.506,-0.15 1.072,-0.597 1.297,-1.491 l 0.968,-3.25 z"
       style="fill:#909085;fill-opacity:1;fill-rule:nonzero;stroke:none"
       id="path3068" /></g><g
     id="g3070"
     transform="matrix(0.72316989,0,0,0.72316989,380.56883,338.30729)"
     style="fill:#909085;fill-opacity:1"><path
       d="m 0,0 -0.09,-1.088 c -0.864,0.029 -1.983,0.074 -2.951,0.074 -1.402,0 -1.938,-0.059 -1.938,-1.43 0,-1.059 0.373,-1.342 1.237,-1.566 L -1.7,-4.576 c 1.596,-0.433 2.087,-1.387 2.087,-2.922 0,-2.37 -1.029,-2.833 -3.503,-2.833 -0.656,0 -1.804,0.03 -3.235,0.299 l 0.104,1.102 c 1.864,-0.059 2.386,-0.074 3.161,-0.074 1.505,0.015 1.953,0.238 1.953,1.521 0,1.118 -0.388,1.356 -1.222,1.58 l -2.088,0.581 c -1.505,0.418 -2.042,1.356 -2.042,2.923 0,2.384 1.059,2.712 3.383,2.712 C -2.132,0.313 -1.044,0.254 0,0"
       style="fill:#909085;fill-opacity:1;fill-rule:nonzero;stroke:none"
       id="path3072" /></g><path
     d="m 382.28578,338.40463 h 1.07824 v -7.43853 h -1.07824 z"
     style="fill:#909085;fill-opacity:1;fill-rule:nonzero;stroke:none;stroke-width:0.72317"
     id="path3074" /><g
     id="g3076"
     transform="matrix(0.72316989,0,0,0.72316989,387.95803,337.44498)"
     style="fill:#909085;fill-opacity:1"><path
       d="M 0,0 V -8.959 H -1.505 V 0 H -4.741 V 1.327 H 3.265 V 0 Z"
       style="fill:#909085;fill-opacity:1;fill-rule:nonzero;stroke:none"
       id="path3078" /></g><g
     id="g3080"
     transform="matrix(0.72316989,0,0,0.72316989,394.10599,339.21263)"
     style="fill:#909085;fill-opacity:1"><path
       d="m 0,0 c -0.268,0 -0.388,0.12 -0.388,0.402 v 0.806 c 0,0.238 0.12,0.402 0.388,0.402 H 0.478 C 0.731,1.61 0.88,1.446 0.88,1.208 V 0.402 C 0.88,0.12 0.731,0 0.478,0 Z m -0.641,-3.101 c -0.074,0.269 -0.178,0.568 -0.238,0.835 H -1.281 C -1.371,-2.533 -1.46,-2.832 -1.535,-3.101 L -2.728,-7.006 H 0.566 Z M -2.638,0 c -0.269,0 -0.388,0.12 -0.388,0.402 v 0.806 c 0,0.238 0.119,0.402 0.388,0.402 h 0.477 c 0.268,0 0.388,-0.164 0.388,-0.402 V 0.402 C -1.773,0.12 -1.893,0 -2.161,0 Z m -0.492,-8.303 -0.954,-3.1 H -5.62 l 3.235,9.883 c 0.06,0.253 0.283,0.403 0.537,0.403 h 1.521 c 0.267,0 0.476,-0.15 0.552,-0.403 l 3.234,-9.883 H 1.924 l -0.954,3.1 z"
       style="fill:#909085;fill-opacity:1;fill-rule:nonzero;stroke:none"
       id="path3082" /></g><g
     id="g3084"
     transform="matrix(0.72316989,0,0,0.72316989,399.75792,337.44498)"
     style="fill:#909085;fill-opacity:1"><path
       d="M 0,0 V -8.959 H -1.505 V 0 H -4.739 V 1.327 H 3.266 V 0 Z"
       style="fill:#909085;fill-opacity:1;fill-rule:nonzero;stroke:none"
       id="path3086" /></g></g><path
   id="path1231"
   d="m 666.64269,420.97018 v -33.60263 h 8.67165 v 33.60263 h 40.10638 v -41.19031 h -7.58767 v 33.60263 h -8.67165 v -33.60263 h -7.58771 v 33.60263 h -8.67166 V 379.77987 H 659.055 v 33.60263 h -7.58768 v -33.60263 h -7.58772 v 33.60263 h -7.58768 v 7.58768 z"
   inkscape:connector-curvature="0"
   style="fill:#3070b3;stroke-width:1.08396" />




<g
   id="Logo_White_Red"
   data-name="Logo White Red"
   transform="matrix(0.16476127,0,0,-0.16476127,472.46533,420.97041)"><path
     id="Munich"
     class="cls-1"
     d="M 162.8,221.54 V 150 h 19.32 v 74 a 16.1,16.1 0 0 1 -4.84,11.24 l -9.85,10 A 15.87,15.87 0 0 1 156.17,250 h -19 a 15.87,15.87 0 0 1 -11.26,-4.68 l -9.86,-10 a 16,16 0 0 1 -4.69,-11.24 V 150 h 19.14 v 71.51 a 3.42,3.42 0 0 0 0.85,2.25 l 6.2,6.07 a 2.83,2.83 0 0 0 2.26,1 h 13.68 a 2.83,2.83 0 0 0 2.26,-1 l 6.2,-6.07 a 3.42,3.42 0 0 0 0.85,-2.22 z M 276.46,150 v 100 h -17.35 a 3,3 0 0 1 -2.68,-1.56 L 222.72,189 v 61 H 203.54 V 150 h 17.2 a 3.21,3.21 0 0 1 2.83,1.69 l 33.71,59.38 V 150 Z m 41.42,100 H 298.7 V 150 h 19.18 z m 170.2,-100 h -20.55 l 16.26,40.42 h -34.7 v 19.11 h 34.7 L 467.53,250 h 20.55 l 19,-50 z m -94,71.37 -2.39,2.39 v 0 l -6.07,6.07 a 3.33,3.33 0 0 1 -2.4,1 H 366 a 3,3 0 0 1 -2.26,-1 l -6.07,-6.07 a 3,3 0 0 1 -1,-2.26 v -42.84 a 2.82,2.82 0 0 1 1,-2.26 l 6.07,-6.21 a 3.66,3.66 0 0 1 2.26,-1 h 17.2 a 4,4 0 0 1 2.4,1 l 8.46,8.46 13.52,-13.52 c -0.13,-0.14 -0.25,-0.3 -0.4,-0.44 l -10,-9.87 A 16.36,16.36 0 0 0 385.92,150 H 363.5 a 16.09,16.09 0 0 0 -11.43,4.79 l -9.87,9.87 A 16,16 0 0 0 337.54,176 v 48.1 a 16,16 0 0 0 4.66,11.29 l 9.87,10 A 15.75,15.75 0 0 0 363.5,250 h 22.42 a 16,16 0 0 0 11.29,-4.66 l 10,-10 c 0.15,-0.14 0.27,-0.3 0.4,-0.44 z M 439.34,250 H 420.16 V 150 h 19.18 z M 71.72,150 45,196.24 18.35,150 H 0 V 250 H 19.18 V 188.18 L 36.39,218 a 3.2,3.2 0 0 0 2.77,1.6 H 50.91 A 3.19,3.19 0 0 0 53.68,218 L 70.76,188.43 V 250 H 89.94 V 150 Z"
     style="fill:#ff506e;fill-opacity:1" /><path
     id="Helmholtz"
     class="cls-2"
     d="M 53.45,0 H 72.64 V 100 H 53.45 V 59.67 H 19.18 V 100 H 0 V 0 h 19.18 v 40.47 h 34.27 z m 50.13,0 a 3.25,3.25 0 0 0 -2.26,1 l -6.2,6.2 a 2.81,2.81 0 0 0 -1,2.25 v 81.1 a 2.82,2.82 0 0 0 1,2.26 l 6.2,6.2 a 2.82,2.82 0 0 0 2.26,1 h 53.6 V 80.82 H 113.31 V 59.67 H 151.4 V 40.47 H 113.31 V 19.18 h 43.87 V 0 Z m 82.47,100 h 44.6 V 80.82 H 195.78 V 0 H 176.6 v 90.55 a 2.76,2.76 0 0 0 1,2.26 l 6.2,6.2 a 2.82,2.82 0 0 0 2.26,1 z M 374,40.47 V 0 H 354.82 V 100 H 374 V 59.67 h 34.27 V 100 h 19.19 V 0 h -19.19 v 40.47 z m 127.61,31 a 3.61,3.61 0 0 1 -1,2.26 l -6.06,6.06 a 3.33,3.33 0 0 1 -2.4,1 H 475 a 3,3 0 0 1 -2.26,-1 l -6.06,-6.06 a 3,3 0 0 1 -1,-2.26 V 28.63 a 2.82,2.82 0 0 1 1,-2.26 l 6.06,-6.2 a 3.61,3.61 0 0 1 2.26,-1 h 17.21 a 4,4 0 0 1 2.4,1 l 6.06,6.2 a 3.3,3.3 0 0 1 1,2.26 z M 506.12,4.75 A 16.4,16.4 0 0 0 494.84,0 H 472.42 A 16.13,16.13 0 0 0 461,4.79 l -9.88,9.88 A 16,16 0 0 0 446.46,26 v 48 a 16,16 0 0 0 4.65,11.29 l 9.88,10 a 15.76,15.76 0 0 0 11.43,4.71 h 22.42 a 16,16 0 0 0 11.28,-4.65 l 10,-10 A 16,16 0 0 0 520.79,74 V 26 a 16,16 0 0 0 -4.65,-11.28 l -10,-9.88 z m 42.7,95.25 h 45.4 V 80.82 H 558.55 V 0 h -19.18 v 90.55 a 2.78,2.78 0 0 0 1,2.26 l 6.21,6.2 a 2.82,2.82 0 0 0 2.26,1 z m 67,-80.82 V 100 H 635 V 19.18 h 26.51 V 0 H 589.32 V 19.18 Z M 730.19,1 a 3.3,3.3 0 0 0 -2.27,-1 h -56 v 19.18 h 39.64 L 670.1,84.77 v 5.78 a 3.33,3.33 0 0 0 1,2.26 l 6.21,6.2 a 2.82,2.82 0 0 0 2.26,1 h 57.26 V 80.82 h -41.49 l 42,-66.44 V 9.44 a 3.34,3.34 0 0 0 -1,-2.25 z M 314.31,0 287.63,46.21 260.94,0 h -18.35 v 100 h 19.18 V 38.15 L 279,68 a 3.2,3.2 0 0 0 2.77,1.6 H 293.5 A 3.19,3.19 0 0 0 296.27,68 L 313.35,38.43 V 100 h 19.18 V 0 Z"
     style="fill:#69005f;fill-opacity:1" /></g><text
   xml:space="preserve"
   style="font-style:normal;font-weight:normal;font-size:18px;line-height:1.25;font-family:sans-serif;fill:#646464;fill-opacity:1;stroke:none;stroke-width:0.75"
   x="391.4772"
   y="-72.013626"
   id="text941"
   transform="scale(1,-1)"><tspan
     sodipodi:role="line"
     id="tspan939"
     x="391.4772"
     y="-72.013626"
     style="font-style:normal;font-variant:normal;font-weight:normal;font-stretch:normal;font-size:18px;font-family:Carlito;-inkscape-font-specification:Carlito;fill:#646464;fill-opacity:1;stroke-width:0.75">@yannik_schaelte</tspan></text><text
   xml:space="preserve"
   style="font-style:normal;font-weight:normal;font-size:18px;line-height:1.25;font-family:sans-serif;fill:#646464;fill-opacity:1;stroke:none;stroke-width:0.75"
   x="607.90411"
   y="-72.013626"
   id="text945"
   transform="scale(1,-1)"><tspan
     sodipodi:role="line"
     id="tspan943"
     x="607.90411"
     y="-72.013626"
     style="font-style:normal;font-variant:normal;font-weight:normal;font-stretch:normal;font-size:18px;font-family:Carlito;-inkscape-font-specification:Carlito;fill:#646464;fill-opacity:1;stroke-width:0.75">yannikschaelte</tspan></text><path
   style="fill:#2aa9e0;stroke-width:0.18086"
   inkscape:connector-curvature="0"
   id="path5"
   d="m 387.04381,86.43248 c -1.14118,-0.506223 -2.36781,-0.848203 -3.65492,-1.002055 1.31379,0.787565 2.32298,2.034664 2.79803,3.520761 -1.22973,-0.7294 -2.5916,-1.258886 -4.04126,-1.544257 -1.16071,1.236865 -2.81462,2.009538 -4.64502,2.009538 -3.51441,0 -6.36393,-2.84921 -6.36393,-6.363614 0,-0.498779 0.0563,-0.984528 0.16487,-1.450272 -5.28898,0.265363 -9.97806,2.798959 -13.11682,6.649139 -0.54779,-0.939863 -0.8617,-2.032956 -0.8617,-3.199257 0,-2.207901 1.12349,-4.15571 2.83106,-5.296883 -1.04315,0.03303 -2.02442,0.319337 -2.8824,0.795935 -7.2e-4,-0.02652 -7.2e-4,-0.0532 -7.2e-4,-0.08003 0,-3.083245 2.19363,-5.655149 5.10488,-6.24016 -0.53398,-0.145476 -1.0962,-0.223178 -1.67655,-0.223178 -0.41007,0 -0.80866,0.04001 -1.19732,0.114149 0.8099,-2.528168 3.16002,-4.368034 5.94486,-4.419214 -2.17796,-1.706952 -4.92187,-2.724362 -7.90353,-2.724362 -0.51366,0 -1.0202,0.03024 -1.51805,0.08902 2.81634,-1.805747 6.16138,-2.859292 9.75519,-2.859292 11.70532,0 18.10646,9.696866 18.10646,18.10662 0,0.275911 -0.006,0.550271 -0.0185,0.823387 1.24323,0.897057 2.32205,2.017761 3.17522,3.294017 z" /><path
   d="m 584.44652,90.874649 c -7.96072,0 -14.41673,-6.455134 -14.41673,-14.418507 0,-6.369281 4.13081,-11.773789 9.86017,-13.68121 0.72136,-0.131881 0.98425,0.313331 0.98425,0.6957 0,0.342539 -0.0123,1.248896 -0.0195,2.451767 -4.01047,-0.870952 -4.85663,1.933089 -4.85663,1.933089 -0.65586,1.665785 -1.60116,2.109227 -1.60116,2.109227 -1.3091,0.893966 0.0992,0.876263 0.0992,0.876263 1.44716,-0.101793 2.20836,-1.486106 2.20836,-1.486106 1.28607,-2.20305 3.37495,-1.566653 4.19634,-1.19756 0.13099,0.931141 0.50362,1.566652 0.9152,1.926894 -3.20147,0.364666 -6.56754,1.601171 -6.56754,7.126054 0,1.574618 0.56203,2.860688 1.48433,3.868834 -0.14871,0.364667 -0.64347,1.830416 0.14162,3.815727 0,0 1.20995,0.38768 3.96442,-1.477256 1.14976,0.319526 2.38361,0.478847 3.6095,0.485043 1.225,-0.0063 2.45796,-0.165517 3.60948,-0.485043 2.75272,1.864936 3.9609,1.477256 3.9609,1.477256 0.78687,-1.985311 0.29208,-3.45106 0.14426,-3.815727 0.92408,-1.008146 1.48169,-2.294216 1.48169,-3.868834 0,-5.539045 -3.3714,-6.757846 -6.58259,-7.114548 0.51691,-0.445213 0.97805,-1.325015 0.97805,-2.670389 0,-1.926894 -0.0177,-3.48204 -0.0177,-3.954691 0,-0.385909 0.26021,-0.834662 0.99132,-0.69393 5.72493,1.910962 9.8522,7.311044 9.8522,13.67944 0,7.963373 -6.45601,14.418507 -14.41938,14.418507"
   style="fill:#1b1817;fill-opacity:1;fill-rule:evenodd;stroke:none;stroke-width:0.0885114"
   id="path14" /></g><g
     aria-label="E mune"
     id="text9078"
     style="font-weight:bold;font-size:33.5688px;font-family:Arial;-inkscape-font-specification:Arial-BoldMT;fill:#ffffff;stroke-width:0.83922"
     transform="matrix(1.2650815,0,0,1.2650815,-240.54603,-110.22105)"><path
       d="m 801.94204,287.07578 v -23.09495 h 18.16125 v 3.73715 h -13.3259 v 5.80242 h 12.32605 v 3.73716 h -12.32605 v 6.08106 h 13.99793 v 3.73716 z"
       id="path1920" /><path
       d="m 834.87197,287.07578 v -9.94935 q 0,-4.67144 -2.68813,-4.67144 -1.39324,0 -2.27835,1.42602 -0.86872,1.42602 -0.86872,3.68798 v 9.50679 h -4.60588 v -13.76846 q 0,-1.42602 -0.0492,-2.32752 -0.0328,-0.9179 -0.082,-1.6391 h 4.39279 q 0.0492,0.31142 0.13113,1.67188 0.082,1.34406 0.082,1.85218 h 0.0656 q 0.85233,-2.03248 2.11444,-2.95038 1.2785,-0.9179 3.04873,-0.9179 4.06497,0 4.9337,3.86828 h 0.0983 q 0.90151,-2.06526 2.16362,-2.96677 1.26211,-0.90151 3.21264,-0.90151 2.58978,0 3.95023,1.77023 1.36046,1.75384 1.36046,5.04844 v 11.26063 h -4.5731 v -9.94935 q 0,-4.67144 -2.68812,-4.67144 -1.34407,0 -2.21279,1.31128 -0.85233,1.29489 -0.93429,3.58963 v 9.71988 z"
       id="path1917" /><path
       d="m 858.61722,269.3407 v 9.94934 q 0,4.67144 3.14708,4.67144 1.67188,0 2.68812,-1.42602 1.03264,-1.44241 1.03264,-3.68798 v -9.50678 h 4.60587 v 13.76845 q 0,2.26196 0.13113,3.96663 h -4.39279 q -0.19669,-2.36031 -0.19669,-3.52407 h -0.082 q -0.91789,2.01609 -2.34391,2.93399 -1.40963,0.9179 -3.36016,0.9179 -2.81926,0 -4.32723,-1.72106 -1.50797,-1.73745 -1.50797,-5.08122 V 269.3407 Z"
       id="path1914" /><path
       d="m 886.27439,287.07578 v -9.94935 q 0,-4.67144 -3.16347,-4.67144 -1.67188,0 -2.70452,1.44241 -1.01624,1.42602 -1.01624,3.67159 v 9.50679 h -4.60588 v -13.76846 q 0,-1.42602 -0.0492,-2.32752 -0.0328,-0.9179 -0.082,-1.6391 h 4.39279 q 0.0492,0.31142 0.13113,1.67188 0.082,1.34406 0.082,1.85218 h 0.0656 q 0.93428,-2.03248 2.34391,-2.95038 1.40963,-0.9179 3.36016,-0.9179 2.81925,0 4.32723,1.73745 1.50797,1.73745 1.50797,5.08122 v 11.26063 z"
       id="path1911" /><path
       d="m 902.55606,287.4036 q -3.9994,0 -6.14663,-2.36031 -2.14722,-2.3767 -2.14722,-6.91701 0,-4.39279 2.18,-6.7531 2.18001,-2.36031 6.17942,-2.36031 3.8191,0 5.8352,2.54061 2.01609,2.52422 2.01609,7.40874 v 0.13113 h -11.37536 q 0,2.58978 0.95068,3.91745 0.96707,1.31128 2.7373,1.31128 2.44226,0 3.08151,-2.11444 l 4.34362,0.377 q -1.88497,4.81896 -7.65461,4.81896 z m 0,-15.48952 q -1.62271,0 -2.50782,1.13098 -0.86873,1.13099 -0.9179,3.16347 h 6.88423 q -0.13113,-2.14722 -1.03264,-3.21264 -0.9015,-1.08181 -2.42587,-1.08181 z"
       id="path1908" /></g><g
     id="g1812"
     style="fill:#ffffff;fill-opacity:1;stroke:none;stroke-opacity:1"
     transform="translate(-200.63204,-0.06230549)"><path
       id="path699"
       style="fill:#ffffff;fill-opacity:1;stroke:none;stroke-width:2.5952;stroke-linecap:round;stroke-linejoin:round;stroke-opacity:1"
       d="m 1071.575,158.48167 a 10.392869,10.392869 0 0 1 -10.3929,10.39287 10.392869,10.392869 0 0 1 -10.3928,-10.39287 10.392869,10.392869 0 0 1 10.3928,-10.39286 10.392869,10.392869 0 0 1 10.3929,10.39286 z" /><path
       id="circle1315"
       style="fill:#ffffff;fill-opacity:1;stroke:none;stroke-width:2.5952;stroke-linecap:round;stroke-linejoin:round;stroke-opacity:1"
       d="m 1071.2226,190.88007 a 10.392869,10.392869 0 0 1 -10.3929,10.39286 10.392869,10.392869 0 0 1 -10.3929,-10.39286 10.392869,10.392869 0 0 1 10.3929,-10.39287 10.392869,10.392869 0 0 1 10.3929,10.39287 z" /><path
       id="circle1317"
       style="fill:#ffffff;fill-opacity:1;stroke:none;stroke-width:2.5952;stroke-linecap:round;stroke-linejoin:round;stroke-opacity:1"
       d="m 1101.5232,173.51309 a 10.392869,10.392869 0 0 1 -10.3928,10.39287 10.392869,10.392869 0 0 1 -10.3929,-10.39287 10.392869,10.392869 0 0 1 10.3929,-10.39287 10.392869,10.392869 0 0 1 10.3928,10.39287 z" /><path
       id="circle1319"
       style="fill:#ffffff;fill-opacity:1;stroke:none;stroke-width:2.5952;stroke-linecap:round;stroke-linejoin:round;stroke-opacity:1"
       d="m 1101.5232,145.84637 a 10.392869,10.392869 0 0 1 -10.3928,10.39287 10.392869,10.392869 0 0 1 -10.3929,-10.39287 10.392869,10.392869 0 0 1 10.3929,-10.39286 10.392869,10.392869 0 0 1 10.3928,10.39286 z" /><path
       id="circle1321"
       style="fill:#ffffff;fill-opacity:1;stroke:none;stroke-width:2.5952;stroke-linecap:round;stroke-linejoin:round;stroke-opacity:1"
       d="m 1101.5232,201.17981 a 10.392869,10.392869 0 0 1 -10.3928,10.39287 10.392869,10.392869 0 0 1 -10.3929,-10.39287 10.392869,10.392869 0 0 1 10.3929,-10.39287 10.392869,10.392869 0 0 1 10.3928,10.39287 z" /><path
       style="color:#000000;fill:#ffffff;fill-opacity:1;stroke:none;stroke-linecap:round;stroke-linejoin:round;stroke-opacity:1;-inkscape-stroke:none"
       d="m 1024.2324,150.29687 -18.4922,8.5254 a 2.0002,2.0002 0 0 0 -1.1523,1.60351 L 1002.3457,181.5 a 2.0002,2.0002 0 0 0 0.8223,1.83594 l 17.6972,12.72461 a 2.0002,2.0002 0 0 0 2.1582,0.11523 l 18.8145,-10.7168 a 2.0002,2.0002 0 0 0 1,-1.53711 l 1.9551,-19.42578 a 2.0002,2.0002 0 0 0 -0.8575,-1.84961 l -17.7324,-12.18164 a 2.0002,2.0002 0 0 0 -1.9707,-0.16797 z m 0.6426,4.10938 15.8184,10.86719 -1.7325,17.2207 -16.8027,9.57031 -15.7109,-11.29687 1.998,-18.78906 z"
       id="path1489" /><path
       id="path1491"
       style="fill:#ffffff;fill-opacity:1;stroke:none;stroke-width:2.70212;stroke-linecap:round;stroke-linejoin:round;stroke-opacity:1"
       transform="rotate(9.2026568)"
       d="m 1043.4018,-28.046684 a 7.0746732,5.9937143 0 0 1 -7.0747,5.993714 7.0746732,5.9937143 0 0 1 -7.0746,-5.993714 7.0746732,5.9937143 0 0 1 7.0746,-5.993715 7.0746732,5.9937143 0 0 1 7.0747,5.993715 z" /><path
       id="ellipse1493"
       style="fill:#ffffff;fill-opacity:1;stroke:none;stroke-width:2.70212;stroke-linecap:round;stroke-linejoin:round;stroke-opacity:1"
       transform="rotate(-53.156253)"
       d="m 478.12137,887.87238 a 7.0746732,5.9937143 0 0 1 -7.07468,5.99371 7.0746732,5.9937143 0 0 1 -7.07467,-5.99371 7.0746732,5.9937143 0 0 1 7.07467,-5.99372 7.0746732,5.9937143 0 0 1 7.07468,5.99372 z" /><path
       id="ellipse1495"
       style="fill:#ffffff;fill-opacity:1;stroke:none;stroke-width:2.70212;stroke-linecap:round;stroke-linejoin:round;stroke-opacity:1"
       transform="rotate(58.012092)"
       d="m 691.90146,-741.0498 a 7.0746732,5.9937143 0 0 1 -7.07468,5.99371 7.0746732,5.9937143 0 0 1 -7.07467,-5.99371 7.0746732,5.9937143 0 0 1 7.07467,-5.99372 7.0746732,5.9937143 0 0 1 7.07468,5.99372 z" /><path
       id="ellipse1497"
       style="fill:#ffffff;fill-opacity:1;stroke:none;stroke-width:2.70212;stroke-linecap:round;stroke-linejoin:round;stroke-opacity:1"
       transform="rotate(16.02653)"
       d="m 1044.6389,-81.777298 a 7.0746732,5.9937143 0 0 1 -7.0747,5.993714 7.0746732,5.9937143 0 0 1 -7.0747,-5.993714 7.0746732,5.9937143 0 0 1 7.0747,-5.993714 7.0746732,5.9937143 0 0 1 7.0747,5.993714 z" /><path
       style="color:#000000;fill:#ffffff;fill-opacity:1;stroke:none;stroke-linecap:round;stroke-linejoin:round;stroke-opacity:1;-inkscape-stroke:none"
       d="m 1027.6191,137.02734 a 1.6,1.6 0 0 0 -1.832,1.32813 l -2.1211,13.29101 a 1.6,1.6 0 0 0 1.3281,1.83204 1.6,1.6 0 0 0 1.8321,-1.32813 l 2.1211,-13.29102 a 1.6,1.6 0 0 0 -1.3282,-1.83203 z"
       id="path1595" /><path
       style="color:#000000;fill:#ffffff;fill-opacity:1;stroke:none;stroke-linecap:round;stroke-linejoin:round;stroke-opacity:1;-inkscape-stroke:none"
       d="m 1022.2598,193.71875 a 1.6,1.6 0 0 0 -1.8321,1.32617 l -2.1211,13.29297 a 1.6,1.6 0 0 0 1.3282,1.83203 1.6,1.6 0 0 0 1.832,-1.32812 l 2.1211,-13.29102 a 1.6,1.6 0 0 0 -1.3281,-1.83203 z"
       id="path1597" /><path
       style="color:#000000;fill:#ffffff;fill-opacity:1;stroke:none;stroke-linecap:round;stroke-linejoin:round;stroke-opacity:1;-inkscape-stroke:none"
       d="m 1003.1016,180.39062 -12.63285,6.60743 a 1.6,1.6 0 0 0 -0.67773,2.1582 1.6,1.6 0 0 0 2.16015,0.67773 l 12.63283,-6.60937 a 1.6,1.6 0 0 0 0.6777,-2.1582 1.6,1.6 0 0 0 -2.1601,-0.67579 z"
       id="path1601" /><path
       style="color:#000000;fill:#ffffff;fill-opacity:1;stroke:none;stroke-linecap:round;stroke-linejoin:round;stroke-opacity:1;-inkscape-stroke:none"
       d="m 1055.9414,156.84766 a 1.6,1.6 0 0 0 -1.2207,0.10937 l -12.6328,6.60742 a 1.6,1.6 0 0 0 -0.6758,2.16016 1.6,1.6 0 0 0 2.1582,0.67578 l 12.6348,-6.60742 a 1.6,1.6 0 0 0 0.6758,-2.1582 1.6,1.6 0 0 0 -0.9395,-0.78711 z"
       id="path1603" /><path
       style="color:#000000;fill:#ffffff;fill-opacity:1;stroke:none;stroke-linecap:round;stroke-linejoin:round;stroke-opacity:1;-inkscape-stroke:none"
       d="m 993.00195,153.46875 a 1.6,1.6 0 0 0 -0.89062,0.83984 1.6,1.6 0 0 0 0.80273,2.11524 l 12.33394,5.54101 a 1.6,1.6 0 0 0 2.1153,-0.80273 1.6,1.6 0 0 0 -0.8047,-2.11524 l -12.33204,-5.54101 a 1.6,1.6 0 0 0 -1.22461,-0.0371 z"
       id="path1605" /><path
       style="color:#000000;fill:#ffffff;fill-opacity:1;stroke:none;stroke-linecap:round;stroke-linejoin:round;stroke-opacity:1;-inkscape-stroke:none"
       d="m 1042.2734,182.39648 a 1.6,1.6 0 0 0 -2.1152,0.80469 1.6,1.6 0 0 0 0.8047,2.11328 l 12.332,5.54297 a 1.6,1.6 0 0 0 2.1153,-0.80469 1.6,1.6 0 0 0 -0.8028,-2.11523 z"
       id="path1607" /><path
       style="color:#000000;fill:#ffffff;fill-opacity:1;stroke:none;stroke-linecap:round;stroke-linejoin:round;stroke-opacity:1;-inkscape-stroke:none"
       d="m 1089.9824,144.56836 -29.7304,12.41992 a 1.2,1.2 0 0 0 -0.6446,1.57031 1.2,1.2 0 0 0 1.5703,0.64453 l 29.7305,-12.41992 a 1.2,1.2 0 0 0 0.6445,-1.57031 1.2,1.2 0 0 0 -1.5703,-0.64453 z"
       id="path1609" /><path
       style="color:#000000;fill:#ffffff;fill-opacity:1;stroke:none;stroke-linecap:round;stroke-linejoin:round;stroke-opacity:1;-inkscape-stroke:none"
       d="m 1061.2754,157.03516 a 1.2,1.2 0 0 0 -1.6211,0.5 1.2,1.2 0 0 0 0.498,1.62109 l 29.0801,15.40039 a 1.2,1.2 0 0 0 1.6231,-0.5 1.2,1.2 0 0 0 -0.5,-1.62109 z"
       id="path1611" /><path
       style="color:#000000;fill:#ffffff;fill-opacity:1;stroke:none;stroke-linecap:round;stroke-linejoin:round;stroke-opacity:1;-inkscape-stroke:none"
       d="m 1061.1719,189.44727 a 1.2,1.2 0 0 0 -1.5664,0.65234 1.2,1.2 0 0 0 0.6523,1.56641 l 29.0781,11.98632 a 1.2,1.2 0 0 0 1.5684,-0.65234 1.2,1.2 0 0 0 -0.6523,-1.56641 z"
       id="path1613" /><path
       style="color:#000000;fill:#ffffff;fill-opacity:1;stroke:none;stroke-linecap:round;stroke-linejoin:round;stroke-opacity:1;-inkscape-stroke:none"
       d="m 1090.3633,171.21094 -30.2695,18.32031 a 1.2,1.2 0 0 0 -0.4063,1.64844 1.2,1.2 0 0 0 1.6484,0.40429 l 30.2696,-18.32031 a 1.2,1.2 0 0 0 0.4062,-1.64648 1.2,1.2 0 0 0 -1.6484,-0.40625 z"
       id="path1615" /><path
       style="color:#000000;fill:#ffffff;fill-opacity:1;stroke:none;stroke-linecap:round;stroke-linejoin:round;stroke-opacity:1;-inkscape-stroke:none"
       d="m 1090.3965,142.76562 a 1.2,1.2 0 0 0 -0.7539,0.5254 l -29.9375,46.61718 a 1.2,1.2 0 0 0 0.3613,1.65821 1.2,1.2 0 0 0 1.6582,-0.36133 l 29.9375,-46.61719 a 1.2,1.2 0 0 0 -0.3613,-1.6582 1.2,1.2 0 0 0 -0.9043,-0.16407 z"
       id="path1617" /><path
       style="color:#000000;fill:#ffffff;fill-opacity:1;stroke:none;stroke-linecap:round;stroke-linejoin:round;stroke-opacity:1;-inkscape-stroke:none"
       d="m 1060.9102,156.91211 a 1.2,1.2 0 0 0 -0.8946,0.20898 1.2,1.2 0 0 0 -0.2773,1.67383 l 30.7871,43.02735 a 1.2,1.2 0 0 0 1.6738,0.27734 1.2,1.2 0 0 0 0.2774,-1.67383 l -30.7852,-43.02734 a 1.2,1.2 0 0 0 -0.7812,-0.48633 z"
       id="path1619" /><path
       style="color:#000000;fill:#ffffff;fill-opacity:1;stroke:none;stroke-linecap:round;stroke-linejoin:round;stroke-opacity:1;-inkscape-stroke:none"
       d="m 1031.5762,168.07812 c -0.7865,0.26003 -1.4188,0.73346 -1.9864,1.3086 -1.1353,1.15049 -2.0181,2.5913 -2.9414,3.6914 -0.4616,0.55006 -0.9114,0.98919 -1.205,1.19532 -0.2936,0.20613 -0.3126,0.13418 -0.1582,0.15234 0.3087,0.0363 -0.9013,-0.6788 -2.0137,-2.00976 -1.1125,-1.33097 -2.0735,-2.99483 -4.1621,-3.93165 -1.0444,-0.46844 -2.3016,-0.46477 -3.2696,-0.11132 -0.9679,0.35344 -1.6938,0.93961 -2.33,1.57226 -1.2726,1.26532 -2.258,2.83189 -3.2246,4.31055 a 2.2505,2.2505 0 0 0 0.6523,3.11523 2.2505,2.2505 0 0 0 3.1152,-0.65234 c 0.9667,-1.47866 1.9154,-2.87061 2.6309,-3.58203 0.3261,-0.32421 0.549,-0.44587 0.6387,-0.48828 0.1135,0.0793 1.3332,1.26295 2.4961,2.65429 1.1884,1.42196 2.3207,3.28528 4.9414,3.59375 1.3102,0.15424 2.4401,-0.35716 3.2695,-0.93945 0.8294,-0.58229 1.4751,-1.27977 2.0664,-1.98437 1.1415,-1.3602 2.1136,-2.7788 2.6035,-3.30664 0.1208,0.10981 0.059,0.0625 0.3008,0.33984 a 2.2505,2.2505 0 0 0 3.1738,0.21875 2.2505,2.2505 0 0 0 0.2207,-3.17578 c -0.4753,-0.54609 -1.0439,-1.41843 -2.4218,-1.92969 -0.689,-0.25563 -1.61,-0.30104 -2.3965,-0.041 z"
       id="path1621" /></g><circle
     style="fill:#000000;fill-opacity:1;stroke:none;stroke-width:2.5952;stroke-linecap:round;stroke-linejoin:round"
     id="path699-6"
     cx="1077.0219"
     cy="42.920475"
     r="10.392869" /><circle
     style="fill:#000000;fill-opacity:1;stroke:none;stroke-width:2.5952;stroke-linecap:round;stroke-linejoin:round"
     id="circle1315-7"
     cx="1076.6694"
     cy="75.318863"
     r="10.392869" /><circle
     style="fill:#000000;fill-opacity:1;stroke:none;stroke-width:2.5952;stroke-linecap:round;stroke-linejoin:round"
     id="circle1317-5"
     cx="1106.9701"
     cy="57.951893"
     r="10.392869" /><circle
     style="fill:#000000;fill-opacity:1;stroke:none;stroke-width:2.5952;stroke-linecap:round;stroke-linejoin:round"
     id="circle1319-3"
     cx="1106.9701"
     cy="30.285175"
     r="10.392869" /><circle
     style="fill:#000000;fill-opacity:1;stroke:none;stroke-width:2.5952;stroke-linecap:round;stroke-linejoin:round"
     id="circle1321-5"
     cx="1106.9701"
     cy="85.618607"
     r="10.392869" /><path
     style="fill:none;fill-opacity:1;stroke:#000000;stroke-width:4;stroke-linecap:round;stroke-linejoin:round;stroke-dasharray:none;stroke-opacity:1"
     d="m 1022.4174,45.0772 18.4924,-8.52482 17.7322,12.18147 -1.9543,19.42612 -18.8143,10.71647 -17.699,-12.72606 z"
     id="path1489-6"
     sodipodi:nodetypes="ccccccc" /><ellipse
     style="fill:#000000;fill-opacity:1;stroke:none;stroke-width:2.70212;stroke-linecap:round;stroke-linejoin:round"
     id="path1491-2"
     cx="1033.4817"
     cy="-144.65369"
     rx="7.0746732"
     ry="5.9937143"
     transform="rotate(9.2026568)" /><ellipse
     style="fill:#000000;fill-opacity:1;stroke:none;stroke-width:2.70212;stroke-linecap:round;stroke-linejoin:round"
     id="ellipse1493-9"
     cx="573.02533"
     cy="831.25403"
     rx="7.0746732"
     ry="5.9937143"
     transform="rotate(-53.156253)" /><ellipse
     style="fill:#000000;fill-opacity:1;stroke:none;stroke-width:2.70212;stroke-linecap:round;stroke-linejoin:round"
     id="ellipse1495-1"
     cx="595.20337"
     cy="-815.70184"
     rx="7.0746732"
     ry="5.9937143"
     transform="rotate(58.012092)" /><ellipse
     style="fill:#000000;fill-opacity:1;stroke:none;stroke-width:2.70212;stroke-linecap:round;stroke-linejoin:round"
     id="ellipse1497-2"
     cx="1020.8839"
     cy="-197.22017"
     rx="7.0746732"
     ry="5.9937143"
     transform="rotate(16.02653)" /><path
     style="fill:none;fill-opacity:1;stroke:#000000;stroke-width:3.2;stroke-linecap:round;stroke-linejoin:round;stroke-dasharray:none;stroke-opacity:1"
     d="m 1043.2074,23.04644 -2.1216,13.29145"
     id="path1595-7" /><path
     style="fill:none;fill-opacity:1;stroke:#000000;stroke-width:3.2;stroke-linecap:round;stroke-linejoin:round;stroke-dasharray:none;stroke-opacity:1"
     d="m 1037.8481,79.73679 -2.1216,13.29145"
     id="path1597-0" /><path
     style="fill:none;fill-opacity:1;stroke:#000000;stroke-width:3.2;stroke-linecap:round;stroke-linejoin:round;stroke-dasharray:none;stroke-opacity:1"
     d="m 1019.683,66.24659 -12.6336,6.60754"
     id="path1601-9"
     sodipodi:nodetypes="cc" /><path
     style="fill:none;fill-opacity:1;stroke:#000000;stroke-width:3.2;stroke-linecap:round;stroke-linejoin:round;stroke-dasharray:none;stroke-opacity:1"
     d="m 1071.3029,42.81424 -12.6336,6.60754"
     id="path1603-3"
     sodipodi:nodetypes="cc" /><path
     style="fill:none;fill-opacity:1;stroke:#000000;stroke-width:3.2;stroke-linecap:round;stroke-linejoin:round;stroke-dasharray:none;stroke-opacity:1"
     d="m 1021.7429,44.94463 -12.3331,-5.54137"
     id="path1605-6"
     sodipodi:nodetypes="cc" /><path
     style="fill:none;fill-opacity:1;stroke:#000000;stroke-width:3.2;stroke-linecap:round;stroke-linejoin:round;stroke-dasharray:none;stroke-opacity:1"
     d="m 1069.7913,73.83611 -12.3331,-5.54137"
     id="path1607-0"
     sodipodi:nodetypes="cc" /><path
     style="fill:none;fill-opacity:1;stroke:#000000;stroke-width:2.4;stroke-linecap:round;stroke-linejoin:round;stroke-dasharray:none;stroke-opacity:1"
     d="m 1106.285,30.11512 -29.7305,12.4201"
     id="path1609-6"
     sodipodi:nodetypes="cc" /><path
     style="fill:none;fill-opacity:1;stroke:#000000;stroke-width:2.4;stroke-linecap:round;stroke-linejoin:round;stroke-dasharray:none;stroke-opacity:1"
     d="M 1105.6339,57.93455 1076.5545,42.53522"
     id="path1611-2"
     sodipodi:nodetypes="cc" /><path
     style="fill:none;fill-opacity:1;stroke:#000000;stroke-width:2.4;stroke-linecap:round;stroke-linejoin:round;stroke-dasharray:none;stroke-opacity:1"
     d="M 1105.6339,86.9817 1076.5545,74.99628"
     id="path1613-6"
     sodipodi:nodetypes="cc" /><path
     style="fill:none;fill-opacity:1;stroke:#000000;stroke-width:2.4;stroke-linecap:round;stroke-linejoin:round;stroke-dasharray:none;stroke-opacity:1"
     d="m 1106.8244,56.67648 -30.2699,18.3198"
     id="path1615-1"
     sodipodi:nodetypes="cc" /><path
     style="fill:none;fill-opacity:1;stroke:#000000;stroke-width:2.4;stroke-linecap:round;stroke-linejoin:round;stroke-dasharray:none;stroke-opacity:1"
     d="m 1106.4925,28.37732 -29.938,46.61896"
     id="path1617-8"
     sodipodi:nodetypes="cc" /><path
     style="fill:none;fill-opacity:1;stroke:#000000;stroke-width:2.4;stroke-linecap:round;stroke-linejoin:round;stroke-dasharray:none;stroke-opacity:1"
     d="M 1107.3413,85.56307 1076.5545,42.53522"
     id="path1619-7"
     sodipodi:nodetypes="cc" /><path
     style="fill:none;fill-opacity:1;stroke:#000000;stroke-width:4.501;stroke-linecap:round;stroke-linejoin:round;stroke-dasharray:none;stroke-opacity:1"
     d="m 1028.0095,59.92539 c 1.9333,-2.95732 3.8667,-5.914782 6.0187,-4.949501 2.1521,0.965282 4.522,5.85241 6.8339,6.124545 2.3119,0.272135 4.5661,-4.070245 6.1693,-5.694823 1.6032,-1.624577 2.5545,-0.531662 3.5052,0.560519"
     id="path1621-9"
     inkscape:path-effect="#path-effect1623-3"
     inkscape:original-d="m 1028.0095,59.92539 c 1.9341,-2.9568 3.8675,-5.91426 5.8003,-8.87255 2.3708,4.88817 4.7406,9.77534 7.11,14.66209 2.255,-4.34193 4.5092,-8.6843 6.7628,-13.02764 0.9521,1.09368 1.9034,2.1866 2.854,3.27884"
     sodipodi:nodetypes="ccccc" /></svg>
